<svg xmlns="http://www.w3.org/2000/svg" viewBox="0 0 81.203 13.137">
  <defs/>
  <g stroke-width=".295" style="line-height:1.25" aria-label="WEBSH T" font-family="CodeNewRoman Nerd Font Mono" font-size="19.646" font-weight="700" letter-spacing="1.27">
    <path style="-inkscape-font-specification:'CodeNewRoman Nerd Font Mono, Bold';font-variant-ligatures:normal;font-variant-caps:normal;font-variant-numeric:normal;font-variant-east-asian:normal" d="M9.358 12.898L10.06.214H8.078L7.765 8.57l-.038 1.98-.464-1.69-1.441-4.784h-1.47L2.987 8.59l-.56 1.98-.076-2.223L2.057.214H0l.692 12.684H3.32l1.204-3.872.426-1.63.446 1.591 1.223 3.911zM13.363 12.898h7.462V10.88h-5.091V7.357h4.854v-1.97h-4.854V2.231h5.091V.214h-7.462zM24.773 12.898h3.783c1.593 0 2.816-.32 3.67-.97.844-.65 1.27-1.621 1.27-2.922 0-.407-.066-.776-.19-1.106a2.798 2.798 0 00-.502-.854 2.61 2.61 0 00-.74-.592 2.996 2.996 0 00-.881-.31c.303-.107.578-.263.806-.457.227-.194.417-.417.569-.67.151-.252.256-.523.331-.824.076-.301.114-.612.114-.932 0-1.02-.36-1.786-1.062-2.29-.701-.505-1.763-.757-3.167-.757h-4zm5.803-9.22c0 .253-.038.476-.114.69-.076.213-.19.407-.36.572a1.78 1.78 0 01-.645.388c-.265.097-.578.136-.958.136h-1.412V2.106h1.412c.37 0 .683.039.949.116.265.078.474.175.644.311.171.136.294.3.37.495.076.194.114.417.114.65zm-1.859 7.27h-1.63v-3.66h1.45c.825 0 1.442.156 1.84.466.398.311.607.748.607 1.291 0 .272-.057.515-.152.748a1.689 1.689 0 01-.427.611c-.19.175-.426.3-.71.398a3.005 3.005 0 01-.978.145zM45.153 9.065c0-.515-.095-.961-.266-1.34a3.295 3.295 0 00-.692-.99 4.538 4.538 0 00-.977-.708c-.36-.194-.74-.36-1.118-.514-.38-.156-.759-.292-1.12-.427a7.855 7.855 0 01-.976-.427c-.284-.156-.521-.32-.692-.515a.998.998 0 01-.256-.689c0-.213.038-.408.123-.582a.966.966 0 01.399-.437c.18-.116.417-.214.701-.281a4.497 4.497 0 011.043-.107c.228 0 .474.02.74.039.256.029.512.068.768.116.256.049.502.107.749.165.237.068.455.136.663.214V.398A15.534 15.534 0 0042.81.126a11.091 11.091 0 00-.796-.087C41.75.019 41.493 0 41.246 0c-.844 0-1.564.107-2.152.3-.597.195-1.08.467-1.46.797-.38.33-.664.718-.835 1.164a3.76 3.76 0 00-.265 1.417c0 .544.085 1.01.256 1.398.17.388.408.718.692.99.285.281.607.514.967.699.36.194.73.359 1.11.504.379.155.749.291 1.109.418.36.135.692.281.977.436.284.165.512.35.682.563.17.214.266.466.266.777 0 .233-.048.436-.133.62a1.29 1.29 0 01-.427.486c-.199.136-.455.243-.758.32a4.761 4.761 0 01-1.129.117c-.303 0-.606-.02-.92-.059a10.919 10.919 0 01-1.905-.397 10.135 10.135 0 01-.91-.292v2.359c.588.184 1.194.31 1.801.388.607.078 1.233.116 1.887.116.73 0 1.403-.077 2.03-.242a4.626 4.626 0 001.601-.738c.446-.33.797-.757 1.043-1.271.247-.505.38-1.107.38-1.805zM54.856 12.898h2.332V.214h-2.332v5.095h-4.21V.214h-2.332v12.684h2.332V7.376h4.21zM77.809 2.203h3.394V.213h-9.178v1.99h3.394v10.695h2.39z"/>
  </g>
  <g transform="translate(-32.087 -10.275)">
    <circle cx="97.47" cy="16.833" r="5.838" fill="none" stroke="#000" stroke-width=".943"/>
    <path fill="#000" d="M100.272 20.106l-2.679-1.215 1.665-.996.077.12 2.482-1.562a4.278 4.278 0 01-1.545 3.653zm-2.787 1.001a4.369 4.369 0 01-1.713-.347v-2.654l1.673.874-.06.129 2.63 1.193a4.355 4.355 0 01-2.53.805zm-2-3.076v2.595a4.327 4.327 0 01-2.14-2.511l2.281-1.93.003 1.846zm-2.346-1.227c0-1.29.573-2.447 1.481-3.236l2.677 1.431-1.67 1-.094-.109-2.274 1.923a4.273 4.273 0 01-.12-1.01zm4.346-4.304c.612 0 1.195.126 1.724.352l-.095 2.937-1.675-.875.069-.125-2.648-1.415a4.355 4.355 0 012.625-.874zm1.914 3.367l.092-2.881a4.31 4.31 0 012.289 3.153l-2.522 1.588-.002-1.865zm-1.88-4.507a5.435 5.435 0 100 10.87 5.435 5.435 0 000-10.87"/>
  </g>
</svg>
