<svg id="webshot-logo" xmlns="http://www.w3.org/2000/svg" viewbox="0 0 81.203 9.647">
	<g style="line-height:1.25">
		<path stroke-width=".295" d="M9.358 9.483L10.06.157H8.078l-.313 6.144-.038 1.456-.464-1.243-1.441-3.517h-1.47L2.987 6.316l-.56 1.456-.076-1.635-.294-5.98H0l.692 9.326H3.32l1.204-2.847.426-1.198.446 1.17 1.223 2.875zm4.005 0h7.462V8h-5.091V5.41h4.854V3.96h-4.854V1.64h5.091V.157h-7.462zm11.41 0h3.783c1.593 0 2.816-.235 3.67-.713.844-.478 1.27-1.192 1.27-2.148 0-.3-.066-.57-.19-.814a2.798 2.057 0 00-.502-.627 2.61 1.919 0 00-.74-.436 2.996 2.203 0 00-.881-.228c.303-.078.578-.193.806-.336a2.32 2.32 0 00.569-.492 2.096 2.096 0 00.445-1.291c0-.75-.36-1.314-1.062-1.684-.701-.371-1.763-.557-3.167-.557h-4zm5.803-6.779c0 .186-.038.35-.114.508-.076.156-.19.299-.36.42a1.78 1.309 0 01-.645.285c-.265.072-.578.1-.958.1h-1.412V1.548h1.412c.37 0 .683.03.949.086.265.057.474.128.644.228.171.1.294.221.37.364.076.143.114.307.114.478zM28.717 8.05h-1.63V5.358h1.45c.825 0 1.442.115 1.84.343.398.229.607.55.607.95 0 .2-.057.378-.152.55a1.689 1.242 0 01-.427.449c-.19.128-.426.22-.71.292a3.005 2.21 0 01-.978.107zm16.436-1.385a1.85 1.85 0 00-.266-.985 3.295 2.423 0 00-.692-.728 4.538 3.337 0 00-.977-.52c-.36-.143-.74-.265-1.118-.379-.38-.114-.759-.214-1.12-.314a7.855 5.775 0 01-.976-.313c-.284-.115-.521-.236-.692-.38a.998.734 0 01-.256-.506c0-.156.038-.3.123-.428a.966.71 0 01.399-.32c.18-.086.417-.158.701-.208a4.497 3.306 0 011.043-.078c.228 0 .474.014.74.028.256.022.512.05.768.086.256.036.502.078.749.121.237.05.455.1.663.157V.293a15.534 11.421 0 00-1.432-.2 11.091 8.155 0 00-.796-.064A14.001 14.001 0 0041.246 0c-.844 0-1.564.079-2.152.22-.597.144-1.08.344-1.46.587-.38.242-.664.527-.835.855a3.76 2.765 0 00-.265 1.042c0 .4.085.743.256 1.028.17.285.408.528.692.728.285.207.607.378.967.514.36.143.73.264 1.11.37.379.114.749.214 1.109.308.36.1.692.206.977.32.284.122.512.258.682.414.17.158.266.343.266.572 0 .171-.048.32-.133.456a1.29.948 0 01-.427.357 2.9 2.9 0 01-.758.235 4.761 3.5 0 01-1.129.086c-.303 0-.606-.015-.92-.043a10.919 8.028 0 01-1.905-.292 10.135 7.452 0 01-.91-.215v1.735c.588.135 1.194.228 1.801.285.607.057 1.233.085 1.887.085.73 0 1.403-.056 2.03-.178a4.626 3.401 0 001.601-.542 2.832 2.832 0 001.043-.935c.247-.371.38-.814.38-1.327zm9.703 2.818h2.332V.157h-2.332v3.746h-4.21V.157h-2.332v9.326h2.332v-4.06h4.21zM77.809 1.62h3.394V.157h-9.178V1.62h3.394v7.863h2.39z" aria-label="WEBSH T" font-family="'CodeNewRoman Nerd Font Mono'" font-size="19.646" font-weight="700" letter-spacing="1.27" style="-inkscape-font-specification:'CodeNewRoman Nerd Font Mono, Bold';font-variant-ligatures:normal;font-variant-caps:normal;font-variant-numeric:normal;font-variant-east-asian:normal"/>
	</g>
	<g transform="matrix(.85441 0 0 .72382 -18.132 -7.689)">
		<ellipse cx="97.519" cy="17.366" fill="none" stroke="current" stroke-width="1" rx="5.453" ry="5.982"/>
		<path fill="current" d="M100.072 20.637l-2.441-1.214 1.517-.996.07.12 2.261-1.561a3.897 4.276 0 01-1.407 3.65zm-2.54 1a3.98 4.367 0 01-1.56-.346v-2.653l1.524.874-.054.128 2.395 1.193a3.967 4.353 0 01-2.304.804zm-1.821-3.074v2.594a3.942 4.325 0 01-1.95-2.51l2.078-1.929.003 1.845zm-2.137-1.226c0-1.29.522-2.446 1.349-3.234l2.438 1.43-1.521 1-.086-.11-2.071 1.922a3.893 4.27 0 01-.11-1.01zm3.959-4.302c.557 0 1.088.126 1.57.352l-.086 2.935-1.526-.874.063-.125-2.413-1.414a3.967 4.353 0 012.392-.874zm1.743 3.365l.084-2.88a3.926 4.308 0 012.085 3.152l-2.297 1.587-.002-1.864zm-1.712-4.504a4.951 5.432 0 100 10.864 4.951 5.432 0 000-10.864"/>
	</g>
</svg>
