<svg xmlns="http://www.w3.org/2000/svg" viewBox="0 0 109.662 18.666"><defs/><g stroke-width=".265" aria-label="networld" font-family="Oxanium" font-size="22.578" font-weight="400" letter-spacing="0" style="line-height:1.25;-inkscape-font-specification:'Oxanium, Normal';font-variant-ligatures:normal;font-variant-caps:normal;font-variant-numeric:normal;font-variant-east-asian:normal" word-spacing="0"><path d="M0 18.205V6.577h6.164q3.206 0 3.206 3.229v8.399H8.354V9.58q0-2.1-2.1-2.1H1.016v10.725zM12.937 14.976v-5.17q0-3.229 3.229-3.229H19.1q3.206 0 3.206 3.229v3.003h-8.354v2.393q0 2.1 2.1 2.1h5.802v.429l-.632.474h-5.057q-3.229 0-3.229-3.229zm1.016-3.07h7.338V9.58q0-2.1-2.1-2.1h-3.138q-2.1 0-2.1 2.1zM25.874 14.976V2.626h1.016v3.951h4.538v.903H26.89v7.722q0 2.1 2.1 2.1h2.664v.429l-.632.474h-1.92q-3.228 0-3.228-3.229zM33.031 6.803l.158-.226h.813l2.755 10.725h.406l3.274-10.725h1.219l3.274 10.725h.429l2.754-10.725h.79l.158.226-2.957 11.402h-1.852L41.046 7.638 37.84 18.205h-1.828zM51.364 14.976v-5.17q0-3.229 3.229-3.229h3.16q3.207 0 3.207 3.229v5.17q0 3.229-3.206 3.229h-3.161q-3.229 0-3.229-3.229zm1.016.226q0 2.1 2.1 2.1h3.364q2.1 0 2.1-2.1V9.58q0-2.1-2.1-2.1H54.48q-2.1 0-2.1 2.1zM64.527 18.205V7.819q.768-1.242 2.777-1.242h2.145l.632.474v.43h-2.89q-1.128 0-1.648.609v10.115zM72.497 15.676V1.497h1.016v14.27q0 1.67 1.67 1.715v.88q-2.686 0-2.686-2.686zM77.6 14.976v-5.17q0-3.229 3.228-3.229h5.126v-5.08h1.016v16.708h-6.142q-3.228 0-3.228-3.229zm1.016.226q0 2.1 2.1 2.1h5.238V7.48h-5.239q-2.1 0-2.1 2.1z" style="-inkscape-font-specification:'Oxanium, Normal';font-variant-ligatures:normal;font-variant-caps:normal;font-variant-numeric:normal;font-variant-east-asian:normal"/></g><g stroke="#244860" stroke-miterlimit="10" stroke-width="4.912" transform="matrix(.12467 0 0 .12467 71.752 -97.323)"><circle cx="221.8" cy="859.2" r="61.4" fill="none"/><path fill="none" d="M253.7 859.2c0 33.9-14.3 61.4-31.9 61.4-17.6 0-31.9-27.5-31.9-61.4s14.3-61.4 31.9-61.4c17.6 0 31.9 27.5 31.9 61.4zM221.8 797.8v122.8M160.4 859.2h122.8"/><path fill="none" d="M221.8 832.2c19.3 0 36.6-4.5 47.8-11.5-11.3-14-28.5-22.9-47.8-22.9-19.3 0-36.6 8.9-47.8 22.9 11.2 7 28.4 11.5 47.8 11.5zM221.8 886.2c-19.3 0-36.6 4.5-47.8 11.5 11.3 14 28.5 22.9 47.8 22.9 19.3 0 36.6-9 47.8-22.9-11.3-7-28.5-11.5-47.8-11.5z"/><circle cx="248.5" cy="828.3" r="9.1" fill="#4fc1e9"/><path fill="#fc6e51" d="M257.6 889.7c0 5-4.1 9.1-9.1 9.1s-9.1-4.1-9.1-9.1 4.1-9.1 9.1-9.1 9.1 4.1 9.1 9.1z"/><path fill="#b9dc48" d="M199 859.2c0 5-4.1 9.1-9.1 9.1s-9.1-4.1-9.1-9.1 4.1-9.1 9.1-9.1 9.1 4.1 9.1 9.1z"/></g></svg>